<svg height="512" viewBox="0 0 128 128" width="512" xmlns="http://www.w3.org/2000/svg"><g><g><rect fill="#c6715a" height="98.645" rx="3.469" transform="matrix(.449 -.894 .894 .449 -53.278 111.789)" width="13.878" x="57.061" y="49.77"/><path d="m38.524 78.526 25.476 12.801 24.12-12.119a71.689 71.689 0 0 0 17.58-28.884l-18.842 10.53a25.9 25.9 0 0 0 .659-27.7l-1.8-2.993-1.226 3.239a24.708 24.708 0 0 1 -15.182 14.607 61.078 61.078 0 0 1 -9.78-32.607l-.12-13.65-9.533 13.5a58.468 58.468 0 0 0 -10.3 40.6l-17.276-14.092a61.027 61.027 0 0 0 13.811 33.854z" fill="#fc7d4b"/><path d="m64 91.327 10.123-5.086a17.952 17.952 0 0 0 .189-2.646c0-8.177-10.312-18.583-10.312-18.583s-10.313 10.406-10.313 18.588a17.946 17.946 0 0 0 .19 2.646z" fill="#fcc16d"/><g fill="#af5e4b"><path d="m79.455 99.093 28.632-14.387a3.47 3.47 0 0 0 1.543-4.658l-3.116-6.2a3.468 3.468 0 0 0 -4.657-1.542l-37.857 19.021z"/><path d="m48.545 99.093-28.632 14.387a3.469 3.469 0 0 0 -1.543 4.657l3.116 6.2a3.468 3.468 0 0 0 4.657 1.543l37.857-19.022z"/></g></g><g fill="#2e1700"><path d="m108.873 111.916-25.52-12.823 4.433-2.228a1.75 1.75 0 0 0 -1.572-3.127l-6.759 3.4-4.846-2.438-6.709-3.373.474-.238 6.535-3.289 27.733-13.935a1.719 1.719 0 0 1 2.308.765l3.115 6.2a1.719 1.719 0 0 1 -.764 2.308 1.75 1.75 0 1 0 1.57 3.128 5.219 5.219 0 0 0 2.321-7.007l-3.115-6.2a5.22 5.22 0 0 0 -7.008-2.321l-5.693 2.862a73.657 73.657 0 0 0 11.993-22.749 1.75 1.75 0 0 0 -2.521-2.059l-13.771 7.7a27.8 27.8 0 0 0 -2.058-24.234l-1.8-2.992a1.751 1.751 0 0 0 -3.137.277l-1.231 3.23a22.874 22.874 0 0 1 -12.823 13.1 59.168 59.168 0 0 1 -7.053-16.907 1.75 1.75 0 0 0 -3.4.833 62.678 62.678 0 0 0 8.259 19.158 1.753 1.753 0 0 0 2.029.708 26.373 26.373 0 0 0 16.211-15.511 24.262 24.262 0 0 1 -.674 25.729 1.75 1.75 0 0 0 2.31 2.5l14.79-8.263a70.4 70.4 0 0 1 -15.42 23.652l-6.989 3.511-4.039 2.03c-.215-8.739-10.372-19.092-10.809-19.533a1.8 1.8 0 0 0 -2.486 0c-.437.441-10.594 10.794-10.809 19.533l-12.31-6.186-2.18-2.627a58.965 58.965 0 0 1 -12.91-28.644l13.921 11.352a1.75 1.75 0 0 0 2.844-1.562 56.633 56.633 0 0 1 9.993-39.387l6.4-9.065.072 8.218a1.773 1.773 0 0 0 1.766 1.734 1.75 1.75 0 0 0 1.734-1.766l-.12-13.646a1.75 1.75 0 0 0 -3.18-.993l-9.532 13.5a60.115 60.115 0 0 0 -10.957 37.651l-14.084-11.492a1.75 1.75 0 0 0 -2.85 1.5 62.432 62.432 0 0 0 11.63 31.479l-5.256-2.641a5.219 5.219 0 0 0 -7.007 2.321l-3.116 6.2a5.227 5.227 0 0 0 2.321 7.007l25.521 12.827-25.521 12.823a5.22 5.22 0 0 0 -2.32 7.007l3.115 6.2a5.186 5.186 0 0 0 3.023 2.612 5.247 5.247 0 0 0 1.646.267 5.181 5.181 0 0 0 2.338-.559l37.071-18.626 37.07 18.626a5.188 5.188 0 0 0 2.339.559 5.247 5.247 0 0 0 1.646-.267 5.186 5.186 0 0 0 3.023-2.612l3.115-6.2a5.22 5.22 0 0 0 -2.32-7.007zm-83.515 12.4a1.72 1.72 0 0 1 -2.309-.764l-3.115-6.2a1.72 1.72 0 0 1 .764-2.309l27.847-13.992 11.555 5.807zm38.642-56.728c2.64 2.966 8.562 10.261 8.562 16.007 0 .519-.021 1.017-.065 1.5l-8.497 4.274-8.5-4.269c-.044-.489-.066-.987-.066-1.5.003-5.751 5.926-13.046 8.566-16.012zm44.066 49.764-3.115 6.2a1.719 1.719 0 0 1 -2.308.764l-81.943-41.173a1.723 1.723 0 0 1 -.764-2.309l3.116-6.2a1.716 1.716 0 0 1 2.308-.764l81.94 41.173a1.72 1.72 0 0 1 .764 2.309z"/><path d="m98.941 87.343-4.368 2.195a1.75 1.75 0 1 0 1.572 3.127l4.369-2.2a1.75 1.75 0 0 0 -1.573-3.127z"/></g></g></svg>