<svg width="3000" height="2000" viewBox="0 0 3000 2000" fill="none" xmlns="http://www.w3.org/2000/svg">
<path d="M1500 1692.5C2032.95 1692.5 2465 1356.62 2465 942.3C2465 527.976 2032.95 192.1 1500 192.1C967.045 192.1 535 527.976 535 942.3C535 1356.62 967.045 1692.5 1500 1692.5Z" fill="#362C68"/>
<path d="M1500 1022.2C1920.7 1022.2 2284.6 955.6 2459.1 858.8C2442.5 742.2 2391.5 633.7 2314.2 539.5C2118.1 476.4 1826.1 436.4 1500 436.4C1173.9 436.4 881.9 476.4 685.8 539.5C608.5 633.7 557.6 742.2 540.9 858.8C715.4 955.6 1079.3 1022.2 1500 1022.2Z" fill="#3C2C6D"/>
<path d="M553.4 1088.8C732.3 1182 1089.1 1245.5 1500 1245.5C1910.9 1245.5 2267.7 1182 2446.6 1088.8C2458.7 1041.4 2465 992.5 2465 942.4C2465 900.5 2460.6 859.3 2452.1 819.3C2275 724.5 1915.1 659.7 1500 659.7C1084.9 659.7 725 724.5 547.9 819.3C539.4 859.4 535 900.5 535 942.4C535 992.5 541.3 1041.4 553.4 1088.8Z" fill="#442B6D"/>
<path d="M1500 1468.8C1813 1468.8 2094.6 1431.9 2290.1 1373.2C2376.4 1277.7 2434.8 1165.8 2456.1 1044.8C2280.5 948.8 1918.3 883 1500 883C1081.7 883 719.5 948.8 543.9 1044.7C565.1 1165.8 623.5 1277.6 709.9 1373.1C905.4 1431.9 1187 1468.8 1500 1468.8Z" fill="#4D3478"/>
<path d="M1455.7 1691.8C1470.4 1692 1485.2 1692.1 1500 1692.1C1514.8 1692.1 1529.6 1692 1544.3 1691.8C1924.1 1678.5 2246.6 1494.5 2388.2 1236.1C2196.3 1157.8 1870.1 1106.2 1500 1106.2C1129.9 1106.2 803.7 1157.7 611.8 1236.1C753.3 1494.5 1075.9 1678.5 1455.7 1691.8Z" fill="#523D7F"/>
<path d="M633.7 1074.3C638.063 1074.3 641.6 1070.76 641.6 1066.4C641.6 1062.04 638.063 1058.5 633.7 1058.5C629.337 1058.5 625.8 1062.04 625.8 1066.4C625.8 1070.76 629.337 1074.3 633.7 1074.3Z" fill="#7363A4"/>
<path d="M750.6 1120.4C754.521 1120.4 757.7 1117.22 757.7 1113.3C757.7 1109.38 754.521 1106.2 750.6 1106.2C746.679 1106.2 743.5 1109.38 743.5 1113.3C743.5 1117.22 746.679 1120.4 750.6 1120.4Z" fill="#7363A4"/>
<path d="M959.9 1210.1C963.821 1210.1 967 1206.92 967 1203C967 1199.08 963.821 1195.9 959.9 1195.9C955.979 1195.9 952.8 1199.08 952.8 1203C952.8 1206.92 955.979 1210.1 959.9 1210.1Z" fill="#7363A4"/>
<path d="M938.1 866.8C942.021 866.8 945.2 863.621 945.2 859.7C945.2 855.779 942.021 852.6 938.1 852.6C934.179 852.6 931 855.779 931 859.7C931 863.621 934.179 866.8 938.1 866.8Z" fill="#7363A4"/>
<path d="M1176.2 539.8C1180.12 539.8 1183.3 536.621 1183.3 532.7C1183.3 528.779 1180.12 525.6 1176.2 525.6C1172.28 525.6 1169.1 528.779 1169.1 532.7C1169.1 536.621 1172.28 539.8 1176.2 539.8Z" fill="#7363A4"/>
<path d="M1640 621.4C1643.92 621.4 1647.1 618.221 1647.1 614.3C1647.1 610.379 1643.92 607.2 1640 607.2C1636.08 607.2 1632.9 610.379 1632.9 614.3C1632.9 618.221 1636.08 621.4 1640 621.4Z" fill="#7363A4"/>
<path d="M816.6 1001.3C819.914 1001.3 822.6 998.614 822.6 995.3C822.6 991.986 819.914 989.3 816.6 989.3C813.286 989.3 810.6 991.986 810.6 995.3C810.6 998.614 813.286 1001.3 816.6 1001.3Z" fill="#7363A4"/>
<path d="M863.6 1271.3C866.914 1271.3 869.6 1268.61 869.6 1265.3C869.6 1261.99 866.914 1259.3 863.6 1259.3C860.286 1259.3 857.6 1261.99 857.6 1265.3C857.6 1268.61 860.286 1271.3 863.6 1271.3Z" fill="#7363A4"/>
<path d="M720.6 932.3C723.914 932.3 726.6 929.614 726.6 926.3C726.6 922.986 723.914 920.3 720.6 920.3C717.286 920.3 714.6 922.986 714.6 926.3C714.6 929.614 717.286 932.3 720.6 932.3Z" fill="#7363A4"/>
<path d="M923.3 1091.5C925.178 1091.5 926.7 1089.98 926.7 1088.1C926.7 1086.22 925.178 1084.7 923.3 1084.7C921.422 1084.7 919.9 1086.22 919.9 1088.1C919.9 1089.98 921.422 1091.5 923.3 1091.5Z" fill="#7363A4"/>
<path d="M874.6 659.7C876.478 659.7 878 658.178 878 656.3C878 654.422 876.478 652.9 874.6 652.9C872.722 652.9 871.2 654.422 871.2 656.3C871.2 658.178 872.722 659.7 874.6 659.7Z" fill="#7363A4"/>
<path d="M633.7 866.5C635.578 866.5 637.1 864.978 637.1 863.1C637.1 861.222 635.578 859.7 633.7 859.7C631.822 859.7 630.3 861.222 630.3 863.1C630.3 864.978 631.822 866.5 633.7 866.5Z" fill="#7363A4"/>
<path d="M997.8 1000.6C1000.73 1000.6 1003.1 998.227 1003.1 995.3C1003.1 992.373 1000.73 990 997.8 990C994.873 990 992.5 992.373 992.5 995.3C992.5 998.227 994.873 1000.6 997.8 1000.6Z" fill="#7363A4"/>
<path d="M1317.5 710.7C1319.54 710.7 1321.2 709.043 1321.2 707C1321.2 704.956 1319.54 703.3 1317.5 703.3C1315.46 703.3 1313.8 704.956 1313.8 707C1313.8 709.043 1315.46 710.7 1317.5 710.7Z" fill="#7363A4"/>
<path d="M821.8 786.1C824.727 786.1 827.1 783.727 827.1 780.8C827.1 777.873 824.727 775.5 821.8 775.5C818.873 775.5 816.5 777.873 816.5 780.8C816.5 783.727 818.873 786.1 821.8 786.1Z" fill="#7363A4"/>
<path d="M1065.8 665C1068.73 665 1071.1 662.627 1071.1 659.7C1071.1 656.773 1068.73 654.4 1065.8 654.4C1062.87 654.4 1060.5 656.773 1060.5 659.7C1060.5 662.627 1062.87 665 1065.8 665Z" fill="#7363A4"/>
<path d="M977.8 563.6C980.727 563.6 983.1 561.227 983.1 558.3C983.1 555.373 980.727 553 977.8 553C974.873 553 972.5 555.373 972.5 558.3C972.5 561.227 974.873 563.6 977.8 563.6Z" fill="#7363A4"/>
<path d="M1398.2 545.1C1401.13 545.1 1403.5 542.727 1403.5 539.8C1403.5 536.873 1401.13 534.5 1398.2 534.5C1395.27 534.5 1392.9 536.873 1392.9 539.8C1392.9 542.727 1395.27 545.1 1398.2 545.1Z" fill="#7363A4"/>
<path d="M1181.5 804.6C1184.43 804.6 1186.8 802.227 1186.8 799.3C1186.8 796.373 1184.43 794 1181.5 794C1178.57 794 1176.2 796.373 1176.2 799.3C1176.2 802.227 1178.57 804.6 1181.5 804.6Z" fill="#7363A4"/>
<path d="M726.6 624.8C729.527 624.8 731.9 622.427 731.9 619.5C731.9 616.573 729.527 614.2 726.6 614.2C723.673 614.2 721.3 616.573 721.3 619.5C721.3 622.427 723.673 624.8 726.6 624.8Z" fill="#7363A4"/>
<path d="M1136.8 1013.5C1138.84 1013.5 1140.5 1011.84 1140.5 1009.8C1140.5 1007.76 1138.84 1006.1 1136.8 1006.1C1134.76 1006.1 1133.1 1007.76 1133.1 1009.8C1133.1 1011.84 1134.76 1013.5 1136.8 1013.5Z" fill="#7363A4"/>
<path d="M743.5 1249.2C745.543 1249.2 747.2 1247.54 747.2 1245.5C747.2 1243.46 745.543 1241.8 743.5 1241.8C741.456 1241.8 739.8 1243.46 739.8 1245.5C739.8 1247.54 741.456 1249.2 743.5 1249.2Z" fill="#7363A4"/>
<path d="M2366.3 765.8C2370.66 765.8 2374.2 762.039 2374.2 757.4C2374.2 752.761 2370.66 749 2366.3 749C2361.94 749 2358.4 752.761 2358.4 757.4C2358.4 762.039 2361.94 765.8 2366.3 765.8Z" fill="#7363A4"/>
<path d="M2249.4 715C2253.32 715 2256.5 711.642 2256.5 707.5C2256.5 703.358 2253.32 700 2249.4 700C2245.48 700 2242.3 703.358 2242.3 707.5C2242.3 711.642 2245.48 715 2249.4 715Z" fill="#7363A4"/>
<path d="M2040.1 619.6C2044.02 619.6 2047.2 616.242 2047.2 612.1C2047.2 607.958 2044.02 604.6 2040.1 604.6C2036.18 604.6 2033 607.958 2033 612.1C2033 616.242 2036.18 619.6 2040.1 619.6Z" fill="#7363A4"/>
<path d="M1852.4 645.1C1856.32 645.1 1859.5 641.742 1859.5 637.6C1859.5 633.458 1856.32 630.1 1852.4 630.1C1848.48 630.1 1845.3 633.458 1845.3 637.6C1845.3 641.742 1848.48 645.1 1852.4 645.1Z" fill="#7363A4"/>
<path d="M2025.9 984.8C2029.82 984.8 2033 981.442 2033 977.3C2033 973.158 2029.82 969.8 2025.9 969.8C2021.98 969.8 2018.8 973.158 2018.8 977.3C2018.8 981.442 2021.98 984.8 2025.9 984.8Z" fill="#7363A4"/>
<path d="M1823.8 1332.5C1827.72 1332.5 1830.9 1329.14 1830.9 1325C1830.9 1320.86 1827.72 1317.5 1823.8 1317.5C1819.88 1317.5 1816.7 1320.86 1816.7 1325C1816.7 1329.14 1819.88 1332.5 1823.8 1332.5Z" fill="#7363A4"/>
<path d="M1360 1245.8C1363.92 1245.8 1367.1 1242.44 1367.1 1238.3C1367.1 1234.16 1363.92 1230.8 1360 1230.8C1356.08 1230.8 1352.9 1234.16 1352.9 1238.3C1352.9 1242.44 1356.08 1245.8 1360 1245.8Z" fill="#7363A4"/>
<path d="M2183.4 839.5C2186.71 839.5 2189.4 836.635 2189.4 833.1C2189.4 829.565 2186.71 826.7 2183.4 826.7C2180.09 826.7 2177.4 829.565 2177.4 833.1C2177.4 836.635 2180.09 839.5 2183.4 839.5Z" fill="#7363A4"/>
<path d="M2136.4 552.4C2139.71 552.4 2142.4 549.535 2142.4 546C2142.4 542.465 2139.71 539.6 2136.4 539.6C2133.09 539.6 2130.4 542.465 2130.4 546C2130.4 549.535 2133.09 552.4 2136.4 552.4Z" fill="#7363A4"/>
<path d="M2279.4 912.9C2282.71 912.9 2285.4 910.035 2285.4 906.5C2285.4 902.965 2282.71 900.1 2279.4 900.1C2276.09 900.1 2273.4 902.965 2273.4 906.5C2273.4 910.035 2276.09 912.9 2279.4 912.9Z" fill="#7363A4"/>
<path d="M2076.8 738C2078.68 738 2080.2 736.388 2080.2 734.4C2080.2 732.412 2078.68 730.8 2076.8 730.8C2074.92 730.8 2073.4 732.412 2073.4 734.4C2073.4 736.388 2074.92 738 2076.8 738Z" fill="#7363A4"/>
<path d="M1771.4 491.3C1773.28 491.3 1774.8 489.688 1774.8 487.7C1774.8 485.712 1773.28 484.1 1771.4 484.1C1769.52 484.1 1768 485.712 1768 487.7C1768 489.688 1769.52 491.3 1771.4 491.3Z" fill="#7363A4"/>
<path d="M2125.4 1197.2C2127.28 1197.2 2128.8 1195.59 2128.8 1193.6C2128.8 1191.61 2127.28 1190 2125.4 1190C2123.52 1190 2122 1191.61 2122 1193.6C2122 1195.59 2123.52 1197.2 2125.4 1197.2Z" fill="#7363A4"/>
<path d="M2366.3 977.3C2368.18 977.3 2369.7 975.688 2369.7 973.7C2369.7 971.712 2368.18 970.1 2366.3 970.1C2364.42 970.1 2362.9 971.712 2362.9 973.7C2362.9 975.688 2364.42 977.3 2366.3 977.3Z" fill="#7363A4"/>
<path d="M2002.3 838.7C2005.23 838.7 2007.6 836.193 2007.6 833.1C2007.6 830.007 2005.23 827.5 2002.3 827.5C1999.37 827.5 1997 830.007 1997 833.1C1997 836.193 1999.37 838.7 2002.3 838.7Z" fill="#7363A4"/>
<path d="M1682.5 1143.5C1684.54 1143.5 1686.2 1141.75 1686.2 1139.6C1686.2 1137.45 1684.54 1135.7 1682.5 1135.7C1680.46 1135.7 1678.8 1137.45 1678.8 1139.6C1678.8 1141.75 1680.46 1143.5 1682.5 1143.5Z" fill="#7363A4"/>
<path d="M2178.2 1066.8C2181.13 1066.8 2183.5 1064.29 2183.5 1061.2C2183.5 1058.11 2181.13 1055.6 2178.2 1055.6C2175.27 1055.6 2172.9 1058.11 2172.9 1061.2C2172.9 1064.29 2175.27 1066.8 2178.2 1066.8Z" fill="#7363A4"/>
<path d="M1934.2 1195.6C1937.13 1195.6 1939.5 1193.09 1939.5 1190C1939.5 1186.91 1937.13 1184.4 1934.2 1184.4C1931.27 1184.4 1928.9 1186.91 1928.9 1190C1928.9 1193.09 1931.27 1195.6 1934.2 1195.6Z" fill="#7363A4"/>
<path d="M2022.3 1303.4C2025.23 1303.4 2027.6 1300.89 2027.6 1297.8C2027.6 1294.71 2025.23 1292.2 2022.3 1292.2C2019.37 1292.2 2017 1294.71 2017 1297.8C2017 1300.89 2019.37 1303.4 2022.3 1303.4Z" fill="#7363A4"/>
<path d="M1601.8 1323.1C1604.73 1323.1 1607.1 1320.59 1607.1 1317.5C1607.1 1314.41 1604.73 1311.9 1601.8 1311.9C1598.87 1311.9 1596.5 1314.41 1596.5 1317.5C1596.5 1320.59 1598.87 1323.1 1601.8 1323.1Z" fill="#7363A4"/>
<path d="M1818.5 1047.1C1821.43 1047.1 1823.8 1044.59 1823.8 1041.5C1823.8 1038.41 1821.43 1035.9 1818.5 1035.9C1815.57 1035.9 1813.2 1038.41 1813.2 1041.5C1813.2 1044.59 1815.57 1047.1 1818.5 1047.1Z" fill="#7363A4"/>
<path d="M2273.4 1238.3C2276.33 1238.3 2278.7 1235.79 2278.7 1232.7C2278.7 1229.61 2276.33 1227.1 2273.4 1227.1C2270.47 1227.1 2268.1 1229.61 2268.1 1232.7C2268.1 1235.79 2270.47 1238.3 2273.4 1238.3Z" fill="#7363A4"/>
<path d="M1863.2 821.6C1865.24 821.6 1866.9 819.854 1866.9 817.7C1866.9 815.546 1865.24 813.8 1863.2 813.8C1861.16 813.8 1859.5 815.546 1859.5 817.7C1859.5 819.854 1861.16 821.6 1863.2 821.6Z" fill="#7363A4"/>
<path d="M2256.5 570.9C2258.54 570.9 2260.2 569.154 2260.2 567C2260.2 564.846 2258.54 563.1 2256.5 563.1C2254.46 563.1 2252.8 564.846 2252.8 567C2252.8 569.154 2254.46 570.9 2256.5 570.9Z" fill="#7363A4"/>
<path d="M1110.9 317.1C1114.82 317.1 1118 313.921 1118 310C1118 306.079 1114.82 302.9 1110.9 302.9C1106.98 302.9 1103.8 306.079 1103.8 310C1103.8 313.921 1106.98 317.1 1110.9 317.1Z" fill="#7363A4"/>
<path d="M1640 364.6C1643.92 364.6 1647.1 361.421 1647.1 357.5C1647.1 353.579 1643.92 350.4 1640 350.4C1636.08 350.4 1632.9 353.579 1632.9 357.5C1632.9 361.421 1636.08 364.6 1640 364.6Z" fill="#7363A4"/>
<path d="M1250.4 361.5C1253.33 361.5 1255.7 359.127 1255.7 356.2C1255.7 353.273 1253.33 350.9 1250.4 350.9C1247.47 350.9 1245.1 353.273 1245.1 356.2C1245.1 359.127 1247.47 361.5 1250.4 361.5Z" fill="#7363A4"/>
<path d="M1391.2 272.7C1394.13 272.7 1396.5 270.327 1396.5 267.4C1396.5 264.473 1394.13 262.1 1391.2 262.1C1388.27 262.1 1385.9 264.473 1385.9 267.4C1385.9 270.327 1388.27 272.7 1391.2 272.7Z" fill="#7363A4"/>
<path d="M916.6 415.4C919.527 415.4 921.9 413.027 921.9 410.1C921.9 407.173 919.527 404.8 916.6 404.8C913.673 404.8 911.3 407.173 911.3 410.1C911.3 413.027 913.673 415.4 916.6 415.4Z" fill="#7363A4"/>
<path d="M1936.1 412.2C1940.02 412.2 1943.2 408.842 1943.2 404.7C1943.2 400.558 1940.02 397.2 1936.1 397.2C1932.18 397.2 1929 400.558 1929 404.7C1929 408.842 1932.18 412.2 1936.1 412.2Z" fill="#7363A4"/>
<path d="M1806.4 295.4C1809.6 295.4 1812.2 292.624 1812.2 289.2C1812.2 285.776 1809.6 283 1806.4 283C1803.2 283 1800.6 285.776 1800.6 289.2C1800.6 292.624 1803.2 295.4 1806.4 295.4Z" fill="#7363A4"/>
<path d="M2079.8 393.5C2082.73 393.5 2085.1 390.993 2085.1 387.9C2085.1 384.807 2082.73 382.3 2079.8 382.3C2076.87 382.3 2074.5 384.807 2074.5 387.9C2074.5 390.993 2076.87 393.5 2079.8 393.5Z" fill="#7363A4"/>
<path d="M1582.1 246.6C1583.98 246.6 1585.5 244.988 1585.5 243C1585.5 241.012 1583.98 239.4 1582.1 239.4C1580.22 239.4 1578.7 241.012 1578.7 243C1578.7 244.988 1580.22 246.6 1582.1 246.6Z" fill="#7363A4"/>
<path d="M1467.5 393.2C1469.54 393.2 1471.2 391.454 1471.2 389.3C1471.2 387.146 1469.54 385.4 1467.5 385.4C1465.46 385.4 1463.8 387.146 1463.8 389.3C1463.8 391.454 1465.46 393.2 1467.5 393.2Z" fill="#7363A4"/>
<path d="M2256 1410.2L2398.7 1426.1L2352.5 1306.2L2395 1310.9L2351.8 1187.2L2390.6 1191.5L2349.5 1082.1L2382.1 1085.7L2338.7 986L2373.7 989.9L2343.3 910L2364.6 912.4L2322.6 811.4L2259.5 900.7L2280.7 903.1L2233.5 974.3L2268.6 978.2L2204.3 1066L2236.9 1069.6L2172.8 1167.3L2211.6 1171.6L2142.2 1282.8L2184.8 1287.6L2113.3 1394.3L2256 1410.2Z" fill="#322864"/>
<path d="M2035.9 1417L2220.5 1437.3L2165.4 1320.3L2219.8 1326.3L2161.7 1196.8L2211.2 1202.3L2155.7 1075.9L2198.8 1080.7L2150.9 969.5L2188.4 973.6L2150.8 886.4L2175.5 889.1L2108.9 753L2014.3 871.4L2039 874.1L1983.4 951L2020.8 955.2L1949.9 1053.3L1993.1 1058L1911.4 1169.3L1960.9 1174.7L1876.1 1288.5L1930.6 1294.5L1851.4 1396.7L2035.9 1417Z" fill="#2C225E"/>
<path d="M719.3 903.1L740.5 900.7L677.4 811.4L635.4 912.4L656.7 910L626.3 989.9L661.3 986L617.9 1085.7L650.5 1082.1L609.4 1191.5L648.2 1187.2L605 1310.9L647.5 1306.2L601.3 1426.1L744 1410.2L886.7 1394.3L815.2 1287.6L857.8 1282.8L788.4 1171.6L827.2 1167.3L763.1 1069.6L795.7 1066L731.4 978.2L766.5 974.3L719.3 903.1Z" fill="#322864"/>
<path d="M964.1 1417L1148.6 1396.7L1069.4 1294.5L1123.9 1288.5L1039.1 1174.7L1088.6 1169.3L1006.9 1058L1050.1 1053.3L979.2 955.2L1016.6 951L961 874.1L985.7 871.4L891.1 753L824.5 889.1L849.2 886.4L811.6 973.6L849.1 969.5L801.2 1080.7L844.3 1075.9L788.8 1202.3L838.3 1196.8L780.2 1326.3L834.6 1320.3L779.5 1437.3L964.1 1417Z" fill="#2C225E"/>
<path d="M1500 1804.8C2032.95 1804.8 2465 1686.42 2465 1540.4C2465 1394.38 2032.95 1276 1500 1276C967.045 1276 535 1394.38 535 1540.4C535 1686.42 967.045 1804.8 1500 1804.8Z" fill="#211B4F"/>
<path d="M1500 1803.2C1784.65 1803.2 2015.4 1739.98 2015.4 1662C2015.4 1584.02 1784.65 1520.8 1500 1520.8C1215.35 1520.8 984.6 1584.02 984.6 1662C984.6 1739.98 1215.35 1803.2 1500 1803.2Z" fill="#211E51"/>
<path d="M2100.2 1579C2119.09 1579 2134.4 1575.42 2134.4 1571C2134.4 1566.58 2119.09 1563 2100.2 1563C2081.31 1563 2066 1566.58 2066 1571C2066 1575.42 2081.31 1579 2100.2 1579Z" fill="#211E51"/>
<path d="M2092 1673.1C2103.93 1673.1 2113.6 1670.82 2113.6 1668C2113.6 1665.18 2103.93 1662.9 2092 1662.9C2080.07 1662.9 2070.4 1665.18 2070.4 1668C2070.4 1670.82 2080.07 1673.1 2092 1673.1Z" fill="#211E51"/>
<path d="M2296 1595.8C2312.02 1595.8 2325 1592.76 2325 1589C2325 1585.24 2312.02 1582.2 2296 1582.2C2279.98 1582.2 2267 1585.24 2267 1589C2267 1592.76 2279.98 1595.8 2296 1595.8Z" fill="#211E51"/>
<path d="M899.8 1575.8C911.177 1575.8 920.4 1573.65 920.4 1571C920.4 1568.35 911.177 1566.2 899.8 1566.2C888.423 1566.2 879.2 1568.35 879.2 1571C879.2 1573.65 888.423 1575.8 899.8 1575.8Z" fill="#211E51"/>
<path d="M908 1675.6C925.949 1675.6 940.5 1672.2 940.5 1668C940.5 1663.8 925.949 1660.4 908 1660.4C890.051 1660.4 875.5 1663.8 875.5 1668C875.5 1672.2 890.051 1675.6 908 1675.6Z" fill="#211E51"/>
<path d="M704 1595.8C720.016 1595.8 733 1592.76 733 1589C733 1585.24 720.016 1582.2 704 1582.2C687.984 1582.2 675 1585.24 675 1589C675 1592.76 687.984 1595.8 704 1595.8Z" fill="#211E51"/>
<path d="M1104 1392.6C1104 1338.1 1059.8 1293.9 1005.3 1293.9C950.8 1293.9 906.6 1338.1 906.6 1392.6V1481.6H1104V1392.6Z" fill="#2C2563"/>
<path d="M1005.3 1293.9H881.7V1481.7H1005.3V1293.9Z" fill="#2C2563"/>
<path d="M980.4 1392.6C980.4 1338.1 936.2 1293.9 881.7 1293.9C827.2 1293.9 783 1338.1 783 1392.6V1481.6H980.4V1392.6V1392.6Z" fill="#342966"/>
<path d="M883 1424C883 1388.7 854.4 1360.1 819.1 1360.1C783.8 1360.1 755.2 1388.7 755.2 1424V1481.6H883V1424Z" fill="#2C2563"/>
<path d="M823.3 1360.1H759.4V1481.6H823.3V1360.1Z" fill="#2C2563"/>
<path d="M695.6 1424V1481.6H823.3V1424C823.3 1388.7 794.7 1360.1 759.4 1360.1C724.1 1360.1 695.6 1388.7 695.6 1424Z" fill="#342966"/>
<path d="M2243.6 1395.9H1999.4V1503.1H2243.6V1395.9Z" fill="#342966"/>
<path d="M2243.6 1475.7H1999.4V1503.2H2243.6V1475.7Z" fill="#2C2563"/>
<path d="M1999.4 1503.1C2029 1503.1 2053 1479.1 2053 1449.5C2053 1419.9 2029 1395.9 1999.4 1395.9C1969.8 1395.9 1945.8 1419.9 1945.8 1449.5C1945.8 1479.1 1969.8 1503.1 1999.4 1503.1Z" fill="#2C2563"/>
<path d="M2365.7 1449.5C2365.7 1419.9 2341.7 1395.9 2312.1 1395.9H2121.5V1503.1H2312.1C2341.7 1503.1 2365.7 1479.1 2365.7 1449.5Z" fill="#342966"/>
<path d="M2121.5 1503.1C2151.1 1503.1 2175.1 1479.1 2175.1 1449.5C2175.1 1419.9 2151.1 1395.9 2121.5 1395.9C2091.9 1395.9 2067.9 1419.9 2067.9 1449.5C2067.9 1479.1 2091.9 1503.1 2121.5 1503.1Z" fill="#2C2563"/>
<path d="M1999.4 1497.5C2025.91 1497.5 2047.4 1476.01 2047.4 1449.5C2047.4 1422.99 2025.91 1401.5 1999.4 1401.5C1972.89 1401.5 1951.4 1422.99 1951.4 1449.5C1951.4 1476.01 1972.89 1497.5 1999.4 1497.5Z" fill="#3C2C6D"/>
<path d="M1999.4 1487.2C2020.22 1487.2 2037.1 1470.32 2037.1 1449.5C2037.1 1428.68 2020.22 1411.8 1999.4 1411.8C1978.58 1411.8 1961.7 1428.68 1961.7 1449.5C1961.7 1470.32 1978.58 1487.2 1999.4 1487.2Z" fill="#442B6D"/>
<path d="M1999.4 1475.8C2013.93 1475.8 2025.7 1464.03 2025.7 1449.5C2025.7 1434.97 2013.93 1423.2 1999.4 1423.2C1984.88 1423.2 1973.1 1434.97 1973.1 1449.5C1973.1 1464.03 1984.88 1475.8 1999.4 1475.8Z" fill="#4D3478"/>
<path d="M2365.7 1449.5C2365.7 1444.8 2365.1 1440.2 2363.9 1435.8C2357.8 1458.7 2336.9 1475.7 2312.1 1475.7H2121.5V1503.2H2312.1C2341.7 1503.1 2365.7 1479.1 2365.7 1449.5Z" fill="#2C2563"/>
<path d="M2121.5 1497.5C2148.01 1497.5 2169.5 1476.01 2169.5 1449.5C2169.5 1422.99 2148.01 1401.5 2121.5 1401.5C2094.99 1401.5 2073.5 1422.99 2073.5 1449.5C2073.5 1476.01 2094.99 1497.5 2121.5 1497.5Z" fill="#3C2C6D"/>
<path d="M2121.5 1487.2C2142.32 1487.2 2159.2 1470.32 2159.2 1449.5C2159.2 1428.68 2142.32 1411.8 2121.5 1411.8C2100.68 1411.8 2083.8 1428.68 2083.8 1449.5C2083.8 1470.32 2100.68 1487.2 2121.5 1487.2Z" fill="#442B6D"/>
<path d="M2121.5 1475.8C2136.03 1475.8 2147.8 1464.03 2147.8 1449.5C2147.8 1434.97 2136.03 1423.2 2121.5 1423.2C2106.97 1423.2 2095.2 1434.97 2095.2 1449.5C2095.2 1464.03 2106.97 1475.8 2121.5 1475.8Z" fill="#4D3478"/>
<path d="M2296.7 1342.3C2296.7 1312.7 2272.7 1288.7 2243.1 1288.7H2052.5V1395.9H2243.1C2272.7 1395.9 2296.7 1371.9 2296.7 1342.3Z" fill="#342966"/>
<path d="M2052.5 1395.9C2082.1 1395.9 2106.1 1371.9 2106.1 1342.3C2106.1 1312.7 2082.1 1288.7 2052.5 1288.7C2022.9 1288.7 1998.9 1312.7 1998.9 1342.3C1998.9 1371.9 2022.9 1395.9 2052.5 1395.9Z" fill="#2C2563"/>
<path d="M2296.7 1342.3C2296.7 1337.6 2296.1 1333 2294.9 1328.6C2288.8 1351.5 2267.9 1368.5 2243.1 1368.5H2052.5V1396H2243.1C2272.7 1395.9 2296.7 1371.9 2296.7 1342.3Z" fill="#2C2563"/>
<path d="M2052.5 1390.3C2079.01 1390.3 2100.5 1368.81 2100.5 1342.3C2100.5 1315.79 2079.01 1294.3 2052.5 1294.3C2025.99 1294.3 2004.5 1315.79 2004.5 1342.3C2004.5 1368.81 2025.99 1390.3 2052.5 1390.3Z" fill="#3C2C6D"/>
<path d="M2052.5 1380C2073.32 1380 2090.2 1363.12 2090.2 1342.3C2090.2 1321.48 2073.32 1304.6 2052.5 1304.6C2031.68 1304.6 2014.8 1321.48 2014.8 1342.3C2014.8 1363.12 2031.68 1380 2052.5 1380Z" fill="#442B6D"/>
<path d="M2052.5 1368.6C2067.03 1368.6 2078.8 1356.83 2078.8 1342.3C2078.8 1327.77 2067.03 1316 2052.5 1316C2037.97 1316 2026.2 1327.77 2026.2 1342.3C2026.2 1356.83 2037.97 1368.6 2052.5 1368.6Z" fill="#4D3478"/>
<path d="M2318.6 1411.9C2319.6 1411.9 2320.4 1411.1 2320.4 1410.1C2320.4 1409.1 2319.6 1408.3 2318.6 1408.3H2222.7C2221.7 1408.3 2220.9 1409.1 2220.9 1410.1C2220.9 1411.1 2221.7 1411.9 2222.7 1411.9H2318.6Z" fill="#2C2563"/>
<path d="M2278.2 1439.5C2279.2 1439.5 2280 1438.7 2280 1437.7C2280 1436.7 2279.2 1435.9 2278.2 1435.9H2203.8C2202.8 1435.9 2202 1436.7 2202 1437.7C2202 1438.7 2202.8 1439.5 2203.8 1439.5H2278.2Z" fill="#2C2563"/>
<path d="M2087.9 1411.9C2088.9 1411.9 2089.7 1411.1 2089.7 1410.1C2089.7 1409.1 2088.9 1408.3 2087.9 1408.3H2046.6C2045.6 1408.3 2044.8 1409.1 2044.8 1410.1C2044.8 1411.1 2045.6 1411.9 2046.6 1411.9H2087.9Z" fill="#2C2563"/>
<path d="M2328.9 1455.2C2329.9 1455.2 2330.7 1454.4 2330.7 1453.4C2330.7 1452.4 2329.9 1451.6 2328.9 1451.6H2267C2266 1451.6 2265.2 1452.4 2265.2 1453.4C2265.2 1454.4 2266 1455.2 2267 1455.2H2328.9Z" fill="#2C2563"/>
<path d="M2238.2 1352.1C2239.2 1352.1 2240 1351.3 2240 1350.3C2240 1349.3 2239.2 1348.5 2238.2 1348.5H2142.3C2141.3 1348.5 2140.5 1349.3 2140.5 1350.3C2140.5 1351.3 2141.3 1352.1 2142.3 1352.1H2238.2Z" fill="#2C2563"/>
<path d="M2197.8 1324.5C2198.8 1324.5 2199.6 1323.7 2199.6 1322.7C2199.6 1321.7 2198.8 1320.9 2197.8 1320.9H2123.4C2122.4 1320.9 2121.6 1321.7 2121.6 1322.7C2121.6 1323.7 2122.4 1324.5 2123.4 1324.5H2197.8Z" fill="#2C2563"/>
<path d="M2248.6 1308.8C2249.6 1308.8 2250.4 1308 2250.4 1307C2250.4 1306 2249.6 1305.2 2248.6 1305.2H2186.7C2185.7 1305.2 2184.9 1306 2184.9 1307C2184.9 1308 2185.7 1308.8 2186.7 1308.8H2248.6Z" fill="#2C2563"/>
<path d="M1500 1475.6V665.3L1064.3 1091.7L1120.1 1475.6H1500Z" fill="#CE6342"/>
<path d="M1500 665.3L1146.4 1011.3L1213.9 1475.6H1500V665.3Z" fill="#DD6B4B"/>
<path d="M1935.7 1091.7L1500 665.3V1475.6H1879.9L1935.7 1091.7Z" fill="#EA7D57"/>
<path d="M1661.1 1475.6L1620.9 1243.5L1500 817.4L1379.1 1243.5L1338.9 1475.6H1500H1661.1Z" fill="#401202"/>
<path d="M1500 817.4C1500 817.4 1316.2 1333.6 1202.3 1408.7L1338.9 1475.7C1338.9 1475.6 1488.7 1118.7 1500 817.4Z" fill="#F4B17D"/>
<path d="M1797.7 1382C1633 1313.7 1500 817.4 1500 817.4C1511.3 1118.8 1661.1 1475.7 1661.1 1475.7L1797.7 1382Z" fill="#F4B17D"/>
<path d="M1935.6 1475.6H1064.3V1512.8H1935.6V1475.6Z" fill="#A14214"/>
<path d="M1500 583L977.7 1176.4L1500 665.3V583Z" fill="#B24C24"/>
<path d="M1500 583V665.3L2022.3 1176.4L1500 583Z" fill="#B74D2C"/>
<path d="M1879.9 1475.6L1935.7 1091.7L1500 665.3V706.8L1893.2 1091.7L1837.4 1475.6H1879.9Z" fill="#DD6B4B"/>
<path d="M1626.1 1645.2C1626.1 1630 1613.8 1617.6 1598.5 1617.6H1401.5C1386.3 1617.6 1373.9 1629.9 1373.9 1645.2V1691.6H1626.1V1645.2V1645.2Z" fill="#914C00"/>
<path d="M1596.9 1559.5C1596.9 1487.7 1500 1350 1500 1350C1500 1350 1403.1 1487.8 1403.1 1559.5C1403.1 1631.2 1446.5 1660.3 1500 1660.3C1553.5 1660.3 1596.9 1631.3 1596.9 1559.5Z" fill="#EF8410"/>
<path d="M1572.9 1559.5C1572.9 1516.6 1530.5 1439.9 1500 1391.6C1469.5 1440 1427.1 1516.6 1427.1 1559.5C1427.1 1596.2 1439.7 1639.9 1500 1639.9C1560.3 1639.9 1572.9 1596.2 1572.9 1559.5Z" fill="#FFEC01"/>
<path d="M1548.4 1564.2C1548.4 1535.7 1520.3 1484.8 1500 1452.6C1484.8 1526.4 1451.6 1535.7 1451.6 1564.2C1451.6 1588.6 1460 1617.6 1500 1617.6C1540 1617.6 1548.4 1588.6 1548.4 1564.2Z" fill="#FEE89F"/>
<path d="M1626.1 1660.3H1373.9V1691.6H1626.1V1660.3Z" fill="#783C00"/>
</svg>
